<mxfile host="app.diagrams.net" modified="2023-09-22T13:18:59.130Z" agent="Mozilla/5.0 (X11; Linux x86_64) AppleWebKit/537.36 (KHTML, like Gecko) Chrome/117.0.0.0 Safari/537.36" version="21.8.0" etag="PKh41v0KMsP3ph7WPL8C" type="github">
  <diagram name="Halaman-1" id="z7tJ-5mZiKxGV0e7npFy">
    <mxGraphModel>
      <root>
        <mxCell id="0" />
        <mxCell id="1" parent="0" />
      </root>
    </mxGraphModel>
  </diagram>
</mxfile>
